<mxfile host="app.diagrams.net" agent="Mozilla/5.0 (Macintosh; Intel Mac OS X 10_15_7) AppleWebKit/537.36 (KHTML, like Gecko) Chrome/129.0.0.0 Safari/537.36" version="24.7.16">
  <diagram name="Page-1" id="AnxTwKOr7Zs5Z6lw1_N8">
    <mxGraphModel dx="1323" dy="1335" grid="1" gridSize="10" guides="1" tooltips="1" connect="1" arrows="1" fold="1" page="1" pageScale="1" pageWidth="850" pageHeight="1100" math="0" shadow="0">
      <root>
        <mxCell id="0" />
        <mxCell id="1" parent="0" />
        <mxCell id="xMvgXRzcfMuGa7E7qHoZ-1" value="" style="group" vertex="1" connectable="0" parent="1">
          <mxGeometry x="51" y="50" width="819" height="910" as="geometry" />
        </mxCell>
        <mxCell id="xMvgXRzcfMuGa7E7qHoZ-2" value="" style="rounded=1;whiteSpace=wrap;html=1;arcSize=1;" vertex="1" parent="xMvgXRzcfMuGa7E7qHoZ-1">
          <mxGeometry width="819" height="910" as="geometry" />
        </mxCell>
        <mxCell id="xMvgXRzcfMuGa7E7qHoZ-3" value="" style="group" vertex="1" connectable="0" parent="xMvgXRzcfMuGa7E7qHoZ-1">
          <mxGeometry x="29" y="30" width="770" height="850" as="geometry" />
        </mxCell>
        <mxCell id="xMvgXRzcfMuGa7E7qHoZ-4" value="" style="rounded=1;whiteSpace=wrap;html=1;fillColor=#d5e8d4;strokeColor=#82b366;" vertex="1" parent="xMvgXRzcfMuGa7E7qHoZ-3">
          <mxGeometry x="160" y="320" width="360" height="40" as="geometry" />
        </mxCell>
        <mxCell id="xMvgXRzcfMuGa7E7qHoZ-5" style="edgeStyle=orthogonalEdgeStyle;rounded=0;orthogonalLoop=1;jettySize=auto;html=1;entryX=0.5;entryY=0;entryDx=0;entryDy=0;" edge="1" parent="xMvgXRzcfMuGa7E7qHoZ-3" source="xMvgXRzcfMuGa7E7qHoZ-6" target="xMvgXRzcfMuGa7E7qHoZ-10">
          <mxGeometry relative="1" as="geometry" />
        </mxCell>
        <mxCell id="xMvgXRzcfMuGa7E7qHoZ-6" value="The new smartphone has a powerful processor and high-resolution camera." style="rounded=1;whiteSpace=wrap;html=1;fillColor=#fff2cc;strokeColor=#d6b656;" vertex="1" parent="xMvgXRzcfMuGa7E7qHoZ-3">
          <mxGeometry y="40" width="320" height="40" as="geometry" />
        </mxCell>
        <mxCell id="xMvgXRzcfMuGa7E7qHoZ-7" style="edgeStyle=orthogonalEdgeStyle;rounded=0;orthogonalLoop=1;jettySize=auto;html=1;entryX=0.5;entryY=0;entryDx=0;entryDy=0;" edge="1" parent="xMvgXRzcfMuGa7E7qHoZ-3" source="xMvgXRzcfMuGa7E7qHoZ-8" target="xMvgXRzcfMuGa7E7qHoZ-10">
          <mxGeometry relative="1" as="geometry" />
        </mxCell>
        <mxCell id="xMvgXRzcfMuGa7E7qHoZ-8" value="This text is about technology" style="rounded=1;whiteSpace=wrap;html=1;fillColor=#fff2cc;strokeColor=#d6b656;" vertex="1" parent="xMvgXRzcfMuGa7E7qHoZ-3">
          <mxGeometry x="360" y="40" width="320" height="40" as="geometry" />
        </mxCell>
        <mxCell id="xMvgXRzcfMuGa7E7qHoZ-9" style="edgeStyle=orthogonalEdgeStyle;rounded=0;orthogonalLoop=1;jettySize=auto;html=1;entryX=0.5;entryY=0;entryDx=0;entryDy=0;" edge="1" parent="xMvgXRzcfMuGa7E7qHoZ-3" source="xMvgXRzcfMuGa7E7qHoZ-10" target="xMvgXRzcfMuGa7E7qHoZ-12">
          <mxGeometry relative="1" as="geometry" />
        </mxCell>
        <mxCell id="xMvgXRzcfMuGa7E7qHoZ-10" value="&lt;b&gt;Tokenization&lt;/b&gt;" style="rounded=1;whiteSpace=wrap;html=1;fillColor=#e1d5e7;strokeColor=#9673a6;" vertex="1" parent="xMvgXRzcfMuGa7E7qHoZ-3">
          <mxGeometry x="160" y="160" width="360" height="40" as="geometry" />
        </mxCell>
        <mxCell id="xMvgXRzcfMuGa7E7qHoZ-11" style="edgeStyle=orthogonalEdgeStyle;rounded=0;orthogonalLoop=1;jettySize=auto;html=1;entryX=0.5;entryY=0;entryDx=0;entryDy=0;" edge="1" parent="xMvgXRzcfMuGa7E7qHoZ-3" source="xMvgXRzcfMuGa7E7qHoZ-12" target="xMvgXRzcfMuGa7E7qHoZ-4">
          <mxGeometry relative="1" as="geometry" />
        </mxCell>
        <mxCell id="xMvgXRzcfMuGa7E7qHoZ-12" value="&lt;b&gt;NLI Model Logits&lt;/b&gt;" style="rounded=1;whiteSpace=wrap;html=1;fillColor=#e1d5e7;strokeColor=#9673a6;" vertex="1" parent="xMvgXRzcfMuGa7E7qHoZ-3">
          <mxGeometry x="160" y="240" width="360" height="40" as="geometry" />
        </mxCell>
        <mxCell id="xMvgXRzcfMuGa7E7qHoZ-13" style="edgeStyle=orthogonalEdgeStyle;rounded=0;orthogonalLoop=1;jettySize=auto;html=1;" edge="1" parent="xMvgXRzcfMuGa7E7qHoZ-3" source="xMvgXRzcfMuGa7E7qHoZ-14" target="xMvgXRzcfMuGa7E7qHoZ-19">
          <mxGeometry relative="1" as="geometry" />
        </mxCell>
        <mxCell id="xMvgXRzcfMuGa7E7qHoZ-14" value="&lt;b&gt;Contradiction&lt;/b&gt;" style="rounded=0;whiteSpace=wrap;html=1;" vertex="1" parent="xMvgXRzcfMuGa7E7qHoZ-3">
          <mxGeometry x="190" y="330" width="90" height="20" as="geometry" />
        </mxCell>
        <mxCell id="xMvgXRzcfMuGa7E7qHoZ-15" style="edgeStyle=orthogonalEdgeStyle;rounded=0;orthogonalLoop=1;jettySize=auto;html=1;entryX=0.5;entryY=0;entryDx=0;entryDy=0;" edge="1" parent="xMvgXRzcfMuGa7E7qHoZ-3" source="xMvgXRzcfMuGa7E7qHoZ-16" target="xMvgXRzcfMuGa7E7qHoZ-19">
          <mxGeometry relative="1" as="geometry" />
        </mxCell>
        <mxCell id="xMvgXRzcfMuGa7E7qHoZ-16" value="&lt;b&gt;Entailment&lt;/b&gt;" style="rounded=0;whiteSpace=wrap;html=1;" vertex="1" parent="xMvgXRzcfMuGa7E7qHoZ-3">
          <mxGeometry x="400" y="330" width="90" height="20" as="geometry" />
        </mxCell>
        <mxCell id="xMvgXRzcfMuGa7E7qHoZ-17" value="&lt;b&gt;Neutral&lt;/b&gt;" style="rounded=0;whiteSpace=wrap;html=1;fillColor=#f8cecc;strokeColor=#b85450;" vertex="1" parent="xMvgXRzcfMuGa7E7qHoZ-3">
          <mxGeometry x="300" y="330" width="90" height="20" as="geometry" />
        </mxCell>
        <mxCell id="xMvgXRzcfMuGa7E7qHoZ-18" style="edgeStyle=orthogonalEdgeStyle;rounded=0;orthogonalLoop=1;jettySize=auto;html=1;" edge="1" parent="xMvgXRzcfMuGa7E7qHoZ-3" source="xMvgXRzcfMuGa7E7qHoZ-19">
          <mxGeometry relative="1" as="geometry">
            <mxPoint x="345" y="760" as="targetPoint" />
          </mxGeometry>
        </mxCell>
        <mxCell id="xMvgXRzcfMuGa7E7qHoZ-19" value="&lt;b&gt;Softmax Function&lt;/b&gt;" style="rounded=1;whiteSpace=wrap;html=1;fillColor=#e1d5e7;strokeColor=#9673a6;" vertex="1" parent="xMvgXRzcfMuGa7E7qHoZ-3">
          <mxGeometry x="195" y="580" width="300" height="40" as="geometry" />
        </mxCell>
        <mxCell id="xMvgXRzcfMuGa7E7qHoZ-20" style="edgeStyle=orthogonalEdgeStyle;rounded=0;orthogonalLoop=1;jettySize=auto;html=1;dashed=1;entryX=0.5;entryY=0;entryDx=0;entryDy=0;" edge="1" parent="xMvgXRzcfMuGa7E7qHoZ-3" source="xMvgXRzcfMuGa7E7qHoZ-24" target="xMvgXRzcfMuGa7E7qHoZ-28">
          <mxGeometry relative="1" as="geometry">
            <Array as="points">
              <mxPoint x="600" y="610" />
              <mxPoint x="600" y="670" />
              <mxPoint x="345" y="670" />
            </Array>
            <mxPoint x="345" y="720" as="targetPoint" />
          </mxGeometry>
        </mxCell>
        <mxCell id="xMvgXRzcfMuGa7E7qHoZ-21" value="Threshold" style="edgeLabel;html=1;align=center;verticalAlign=middle;resizable=0;points=[];fontStyle=1" vertex="1" connectable="0" parent="xMvgXRzcfMuGa7E7qHoZ-20">
          <mxGeometry x="0.1803" y="1" relative="1" as="geometry">
            <mxPoint as="offset" />
          </mxGeometry>
        </mxCell>
        <mxCell id="xMvgXRzcfMuGa7E7qHoZ-22" style="edgeStyle=orthogonalEdgeStyle;rounded=0;orthogonalLoop=1;jettySize=auto;html=1;entryX=0.5;entryY=0;entryDx=0;entryDy=0;dashed=1;" edge="1" parent="xMvgXRzcfMuGa7E7qHoZ-3" source="xMvgXRzcfMuGa7E7qHoZ-24" target="xMvgXRzcfMuGa7E7qHoZ-19">
          <mxGeometry relative="1" as="geometry">
            <Array as="points">
              <mxPoint x="600" y="610" />
              <mxPoint x="600" y="520" />
              <mxPoint x="345" y="520" />
            </Array>
          </mxGeometry>
        </mxCell>
        <mxCell id="xMvgXRzcfMuGa7E7qHoZ-23" value="&lt;b&gt;One/Multi Label Classification&lt;/b&gt;" style="edgeLabel;html=1;align=center;verticalAlign=middle;resizable=0;points=[];" vertex="1" connectable="0" parent="xMvgXRzcfMuGa7E7qHoZ-22">
          <mxGeometry x="0.3283" relative="1" as="geometry">
            <mxPoint as="offset" />
          </mxGeometry>
        </mxCell>
        <mxCell id="xMvgXRzcfMuGa7E7qHoZ-24" value="" style="sketch=0;outlineConnect=0;fontColor=#232F3E;gradientColor=none;fillColor=#232F3D;strokeColor=none;dashed=0;verticalLabelPosition=bottom;verticalAlign=top;align=center;html=1;fontSize=12;fontStyle=0;aspect=fixed;pointerEvents=1;shape=mxgraph.aws4.user;" vertex="1" parent="xMvgXRzcfMuGa7E7qHoZ-3">
          <mxGeometry x="711" y="590" width="40" height="40" as="geometry" />
        </mxCell>
        <mxCell id="xMvgXRzcfMuGa7E7qHoZ-25" value="&lt;b&gt;Premise&lt;/b&gt;" style="text;html=1;align=center;verticalAlign=middle;whiteSpace=wrap;rounded=0;" vertex="1" parent="xMvgXRzcfMuGa7E7qHoZ-3">
          <mxGeometry x="130" width="60" height="30" as="geometry" />
        </mxCell>
        <mxCell id="xMvgXRzcfMuGa7E7qHoZ-26" value="&lt;b&gt;Hypothesis&lt;/b&gt;" style="text;html=1;align=center;verticalAlign=middle;whiteSpace=wrap;rounded=0;" vertex="1" parent="xMvgXRzcfMuGa7E7qHoZ-3">
          <mxGeometry x="490" width="60" height="30" as="geometry" />
        </mxCell>
        <mxCell id="xMvgXRzcfMuGa7E7qHoZ-27" value="" style="group" vertex="1" connectable="0" parent="xMvgXRzcfMuGa7E7qHoZ-3">
          <mxGeometry x="280" y="760" width="130" height="20" as="geometry" />
        </mxCell>
        <mxCell id="xMvgXRzcfMuGa7E7qHoZ-28" value="&amp;nbsp; &amp;nbsp; &lt;b&gt;Entailment&lt;/b&gt;" style="rounded=0;whiteSpace=wrap;html=1;container=0;align=left;" vertex="1" parent="xMvgXRzcfMuGa7E7qHoZ-27">
          <mxGeometry width="130" height="20" as="geometry" />
        </mxCell>
        <mxCell id="xMvgXRzcfMuGa7E7qHoZ-29" value="54%" style="rounded=0;whiteSpace=wrap;html=1;container=0;fillColor=#d5e8d4;strokeColor=#82b366;" vertex="1" parent="xMvgXRzcfMuGa7E7qHoZ-27">
          <mxGeometry x="90" width="40" height="20" as="geometry" />
        </mxCell>
        <mxCell id="xMvgXRzcfMuGa7E7qHoZ-30" value="Technology" style="rounded=1;whiteSpace=wrap;html=1;fillColor=#d5e8d4;strokeColor=#82b366;" vertex="1" parent="xMvgXRzcfMuGa7E7qHoZ-3">
          <mxGeometry x="280" y="820" width="130" height="30" as="geometry" />
        </mxCell>
        <mxCell id="xMvgXRzcfMuGa7E7qHoZ-31" style="edgeStyle=orthogonalEdgeStyle;rounded=0;orthogonalLoop=1;jettySize=auto;html=1;entryX=0.5;entryY=0;entryDx=0;entryDy=0;" edge="1" parent="xMvgXRzcfMuGa7E7qHoZ-3" source="xMvgXRzcfMuGa7E7qHoZ-28" target="xMvgXRzcfMuGa7E7qHoZ-30">
          <mxGeometry relative="1" as="geometry" />
        </mxCell>
        <mxCell id="xMvgXRzcfMuGa7E7qHoZ-32" value="&lt;b&gt;User&lt;/b&gt;" style="text;html=1;align=center;verticalAlign=middle;whiteSpace=wrap;rounded=0;" vertex="1" parent="xMvgXRzcfMuGa7E7qHoZ-3">
          <mxGeometry x="701" y="630" width="60" height="30" as="geometry" />
        </mxCell>
      </root>
    </mxGraphModel>
  </diagram>
</mxfile>
